<svg version="1.1" class="clearos-svg clearfoundation" viewBox="0 0 400 400" preserveAspectRatio="xMinYMin" xmlns="http://www.w3.org/2000/svg" xmlns:xlink= "http://www.w3.org/1999/xlink">
<path fill="#AA0707" d="M91.666,184.647"/>
<path fill="#AA0707" d="M123.245,247.805"/>
<path fill="#AA0707" d="M91.666,184.647"/>
<path fill="#AA0707" d="M123.245,247.805"/>
<g>
	<path fill="#686868" d="M330.889,28.563H69.113c-36.283,0-65.701,29.418-65.701,65.701v211.473
		c0,36.285,29.417,65.701,65.701,65.701h261.776c36.282,0,65.699-29.416,65.699-65.701V94.264
		C396.588,57.979,367.171,28.563,330.889,28.563z M375.383,293.322c0,32.369-26.24,58.609-58.578,58.609H83.22
		c-32.369,0-58.587-26.289-58.587-58.609V104.625c0-32.369,26.25-58.619,58.587-58.619h233.583c32.386,0,58.578,26.25,58.578,58.619
		L375.383,293.322L375.383,293.322z"/>
	<g>
		<path fill="#686868" d="M135.847,187.688l15.848,29.32l52.958-106.834l50.302,88.55l28.247-11.036h65.14v-79.054
			c0-18.133-14.727-32.851-32.852-32.851H79.378c-18.133,0-32.851,14.717-32.851,32.851v79.054H135.847L135.847,187.688z"/>
		<path fill="#686868" d="M283.408,222.594l-39.299,20.059l-39.161-69.977l-55.764,95.817l-27.726-45.914H46.526v70.84
			c0,18.125,14.717,32.851,32.851,32.851h236.111c18.125,0,32.851-14.726,32.851-32.851v-70.84h-64.931V222.594z"/>
	</g>
</g>
</svg>
